<?xml version="1.0" standalone="no"?>
<!DOCTYPE svg PUBLIC "-//W3C//DTD SVG 1.1//EN" "http://www.w3.org/Graphics/SVG/1.1/DTD/svg11.dtd" >
<svg xmlns="http://www.w3.org/2000/svg">
<metadata>
This is a custom SVG webfont generated by Font Squirrel.
Copyright   :  19911993 Kivun Computers Ltd Portions  The Monotype Corporation
</metadata>
<defs>
<font id="AharoniBold" horiz-adv-x="850" >
<font-face units-per-em="2048" ascent="1505" descent="-543" />
<missing-glyph horiz-adv-x="567" />
<glyph unicode=" "  horiz-adv-x="567" />
<glyph unicode="&#x09;" horiz-adv-x="567" />
<glyph unicode="&#xa0;" horiz-adv-x="567" />
<glyph unicode="!" horiz-adv-x="510" d="M119 119q0 52 35 89.5t86 37.5t86.5 -37.5t35.5 -89.5q0 -49 -35.5 -85t-86.5 -36q-50 0 -85.5 36t-35.5 85zM129 285v686h215v-686h-215z" />
<glyph unicode="&#x22;" horiz-adv-x="793" d="M76 696l100 371h211l-162 -371h-149zM410 696l104 371h207l-158 -371h-153z" />
<glyph unicode="#" d="M0 358v105h199l26 213h-184v104h197l53 330h106l-53 -330h211l53 330h105l-51 -330h172v-104h-185l-28 -213h172v-105h-185l-53 -358h-104l51 358h-226l-51 -358h-106l53 358h-172zM303 463h213l27 213h-211z" />
<glyph unicode="$" d="M90 274h207q0 -87 84 -112v237q-272 58 -272 287q0 110 79 189.5t193 87.5v94h96v-94q112 -5 185 -74t73 -178h-200q-6 51 -58 80v-213q115 -24 195 -92q92 -76 92 -177q0 -147 -87 -237q-80 -82 -200 -88v-101h-96v101q-129 0 -207 71q-84 78 -84 219zM311 684 q0 -71 70 -80v182q-70 -29 -70 -102zM477 160q76 33 76 116q0 85 -76 105v-221z" />
<glyph unicode="%" horiz-adv-x="1303" d="M102 680q0 113 62 191q66 81 170 81t169 -81q62 -78 62 -191q0 -124 -62 -202q-64 -81 -169 -81q-106 0 -170 81q-62 78 -62 202zM246 678q0 -67 23 -109q24 -45 65 -45q40 0 65 45q23 42 23 109q0 62 -24 104.5t-64 42.5t-64 -42.5t-24 -104.5zM338 0l522 938h109 l-520 -938h-111zM745 270q0 114 62 191q66 82 170 82t169 -82q62 -77 62 -191q0 -123 -62.5 -202.5t-168.5 -79.5t-169 79.5t-63 202.5zM889 268q0 -66 23.5 -109.5t64.5 -43.5q40 0 64 43.5t24 109.5q0 63 -24 105.5t-64 42.5t-64 -42.5t-24 -105.5z" />
<glyph unicode="&#x26;" horiz-adv-x="1311" d="M111 329q0 210 266 352q-80 95 -96 123q-38 64 -38 149q0 125 113 209q108 80 256 80q158 0 262 -75q111 -80 111 -212q0 -170 -241 -305l156 -156q36 69 47 126l238 -77q-32 -129 -100 -230q50 -43 135 -92l-123 -254q-110 65 -182 132q-149 -134 -367 -134 q-183 0 -303 89q-134 98 -134 275zM401 342q0 -50 45.5 -93t91.5 -43q121 0 206 83l-237 235q-106 -61 -106 -182zM516 953q0 -53 35 -91l59 -65l65 43q51 34 51 98q0 46 -32.5 75.5t-74.5 29.5q-38 0 -67 -20q-36 -25 -36 -70z" />
<glyph unicode="'" horiz-adv-x="453" d="M61 700l101 363h207l-160 -363h-148z" />
<glyph unicode="(" horiz-adv-x="625" d="M113 143v656q0 128 61 210q87 117 283 117q7 0 22.5 -1t24.5 -1v-176q-102 0 -145.5 -34t-43.5 -115v-656q0 -81 43.5 -115t145.5 -34v-176q-9 0 -24.5 -1t-22.5 -1q-196 0 -283 117q-61 83 -61 210z" />
<glyph unicode=")" horiz-adv-x="625" d="M121 -6q102 0 145 34t43 115v656q0 81 -43 115t-145 34v176q8 0 24 1t23 1q196 0 283 -117q61 -82 61 -210v-656q0 -127 -61 -210q-87 -117 -283 -117q-7 0 -23 1t-24 1v176z" />
<glyph unicode="*" horiz-adv-x="625" d="M76 897q14 64 67 117l119 -72l-18 139q29 13 73 13q25 0 70 -9l-10 -143l110 78q65 -37 70 -117l-127 -55l133 -53q-7 -56 -63 -123l-127 80l18 -148q-30 -8 -72 -8q-26 0 -67 8l10 150l-119 -86q-44 33 -63 123l129 49z" />
<glyph unicode="+" horiz-adv-x="1249" d="M166 385v123h416v434h123v-434h415v-123h-415v-434h-123v434h-416z" />
<glyph unicode="," horiz-adv-x="453" d="M76 -129l86 324h211l-135 -324h-162z" />
<glyph unicode="-" horiz-adv-x="625" d="M90 360v213h438v-213h-438z" />
<glyph unicode="." horiz-adv-x="453" d="M115 104q0 50 35.5 84.5t87.5 34.5q50 0 85 -34.5t35 -84.5t-35 -85t-85 -35q-52 0 -87.5 35t-35.5 85z" />
<glyph unicode="/" horiz-adv-x="682" d="M76 -2l426 944h119l-420 -944h-125z" />
<glyph unicode="0" d="M84 481q0 201 88 335q95 145 254 145t254 -145q88 -134 88 -335q0 -221 -88 -357q-93 -144 -254 -144t-254 144q-88 136 -88 357zM305 479q0 -282 121 -282t121 282q0 114 -31 189q-34 80 -90 80t-90 -80q-31 -75 -31 -189z" />
<glyph unicode="1" d="M238 496v215q139 82 196 223h168v-934h-207v575l-76 -46q-46 -26 -81 -33z" />
<glyph unicode="2" d="M88 0v12l326 426q69 91 69 170q0 76 -58 118q-53 40 -140 40q-56 0 -133 -29v201q93 23 190 23q164 0 266.5 -85t102.5 -219q0 -122 -80 -239l-137 -201h288l-96 -217h-598z" />
<glyph unicode="3" d="M125 39l61 190q136 -45 201 -45q63 0 105 28q47 30 47 81q0 58 -53 92q-46 31 -113 31q-39 0 -58 -4v147q183 0 183 111q0 44 -46 71q-40 24 -96 25q-83 1 -159 -45v201q94 39 204 39q124 0 211 -58q107 -69 107 -198q0 -128 -103 -181q66 -29 106 -92t40 -137 q0 -140 -113 -229q-109 -86 -270 -86q-142 0 -254 59z" />
<glyph unicode="4" d="M94 137v162l387 635h201v-619h106l-73 -178h-33v-137h-201v137h-387zM297 315h184v285z" />
<glyph unicode="5" d="M152 10v203q71 -31 149 -31q203 0 203 150q0 133 -221 149q-25 2 -62 -2q-44 -4 -59 -4l119 459h462l-43 -166h-251l-37 -129q146 0 230.5 -78t84.5 -219q0 -174 -126 -274q-111 -88 -273 -88q-73 0 -176 30z" />
<glyph unicode="6" d="M86 334q0 91 41 175q36 73 127 185l195 240h260l-240 -295q125 -16 204 -84q95 -82 95 -219q0 -165 -101 -264q-96 -92 -243 -92q-144 0 -239 94q-99 98 -99 260zM307 319q0 -49 36 -84.5t85 -35.5t85 35.5t36 84.5q0 50 -36 85.5t-85 35.5t-85 -35.5t-36 -85.5z" />
<glyph unicode="7" d="M143 758l76 176h563l-387 -934h-229l311 758h-334z" />
<glyph unicode="8" d="M80 295q0 130 104 217q-75 62 -75 162q0 125 88.5 206t218.5 81q129 0 218 -81t89 -206q0 -111 -76 -162q105 -84 105 -217q0 -138 -97 -226.5t-239 -88.5t-239 89t-97 226zM297 293q0 -48 35.5 -83.5t83.5 -35.5q47 0 83 35.5t36 83.5q0 47 -36 83t-83 36 q-48 0 -83.5 -36t-35.5 -83zM317 668q0 -40 29.5 -69.5t69.5 -29.5t69 29.5t29 69.5t-29 69t-69 29t-69.5 -29t-29.5 -69z" />
<glyph unicode="9" d="M82 594q0 165 101 263q96 93 243 93q144 0 239 -94q99 -99 99 -260q0 -91 -41 -175q-36 -73 -127 -185l-195 -240h-260l240 295q-125 16 -204 84q-95 81 -95 219zM301 610q0 -49 36 -85t85 -36t85 36t36 85t-36 85t-85 36t-85 -36t-36 -85z" />
<glyph unicode=":" horiz-adv-x="567" d="M88 100q0 51 36 87t87 36t87 -36t36 -87q0 -50 -36 -85t-87 -35t-87 35t-36 85zM88 614q0 51 36 87t87 36t87 -36t36 -87q0 -50 -36 -85t-87 -35t-87 35t-36 85z" />
<glyph unicode=";" horiz-adv-x="567" d="M68 -135l86 330h204l-135 -330h-155zM113 614q0 51 36 87t87 36q50 0 86 -36t36 -87q0 -50 -36 -85t-86 -35q-51 0 -87 35t-36 85z" />
<glyph unicode="&#x3c;" horiz-adv-x="1229" d="M172 381v160l885 422v-164l-723 -342l723 -334v-164z" />
<glyph unicode="=" horiz-adv-x="1249" d="M166 252v123h954v-123h-954zM166 518v123h954v-123h-954z" />
<glyph unicode="&#x3e;" horiz-adv-x="1229" d="M172 -41v164l723 334l-723 342v164l885 -422v-160z" />
<glyph unicode="?" horiz-adv-x="965" d="M84 664q26 127 114 208q96 89 234 89q156 0 254 -95.5t98 -242.5q0 -157 -93 -244q-70 -66 -142 -66v-53h-201v244q54 -23 84 -23q59 0 99 41t40 99t-42 99.5t-97 41.5q-49 0 -92 -38t-49 -87zM330 96q0 49 34.5 84t84.5 35q49 0 83.5 -35t34.5 -84t-34.5 -82.5 t-83.5 -33.5q-50 0 -84.5 33.5t-34.5 82.5z" />
<glyph unicode="@" horiz-adv-x="1409" d="M-19 678q0 287 188 489q222 239 562 239q328 0 533 -219q163 -174 163 -411q0 -118 -47 -229q-50 -119 -137 -187q-100 -78 -211 -78q-63 0 -111 35q-20 15 -45 53q-92 -91 -216 -91q-129 0 -221 90q-109 107 -109 284q0 199 139 311q98 79 232 79q88 0 185 -59l12 43 h189l-55 -451q-5 -41 -5 -91q0 -39 23 -39q18 0 40 9q78 32 125 129q41 85 41 178q0 185 -118 314q-152 166 -411 166q-208 0 -364 -133q-194 -165 -194 -430q0 -287 223 -449q142 -103 357 -103q178 0 321 63l66 29l30 15q4 2 14 6l65 -165l-11 -5q-6 -3 -15 -8l-10 -5 l-48 -22q-185 -85 -409 -85q-282 0 -474 138q-140 101 -218.5 258t-78.5 332zM531 643q0 -69 33 -117q38 -56 103 -56q84 0 143 72q56 67 56 153q0 71 -48 114t-120 43q-59 0 -106 -44q-61 -58 -61 -165z" />
<glyph unicode="A" horiz-adv-x="1454" d="M14 0l525 1365h387l514 -1365h-379l-88 238h-490l-94 -238h-375zM581 508h296l-147 435z" />
<glyph unicode="B" horiz-adv-x="1266" d="M143 0v1365h528q384 0 384 -356q0 -107 -42 -179q-35 -61 -108 -104q164 -34 224 -131q54 -89 54 -207q0 -153 -87 -249q-126 -139 -384 -139h-569zM498 270h79q136 0 190 32q61 36 61 110q0 119 -123 140q-39 6 -134 6h-73v-288zM498 828h65q92 0 132 45q32 36 32 89 q0 93 -84 123q-30 10 -80 10h-65v-267z" />
<glyph unicode="C" horiz-adv-x="1208" d="M82 678q0 340 260 551q204 165 465 165q142 0 319 -69v-425q-50 61 -102 92q-95 57 -204 57q-138 0 -240 -83q-129 -105 -129 -288q0 -182 129 -287q102 -83 240 -83q109 0 204 57q51 30 102 92v-425q-174 -69 -322 -69q-258 0 -462 165q-260 211 -260 550z" />
<glyph unicode="D" horiz-adv-x="1423" d="M143 0v1365h524q192 0 356 -107q161 -104 247 -278q70 -144 70 -297q0 -213 -128.5 -394.5t-328.5 -251.5q-106 -37 -216 -37h-524zM498 297h81q209 0 313 139q79 106 79 247t-79 246q-105 139 -313 139h-81v-771z" />
<glyph unicode="E" horiz-adv-x="1002" d="M143 0v1365h777v-297h-422v-231h399v-297h-399v-243h422v-297h-777z" />
<glyph unicode="F" horiz-adv-x="994" d="M143 0v1365h782v-297h-427v-231h389v-297h-389v-540h-355z" />
<glyph unicode="G" horiz-adv-x="1593" d="M81 677q0 298 178 501q202 231 564 231q242 0 410 -124q120 -88 205 -260l-337 -139q-43 96 -100 144q-82 68 -195 68q-231 0 -322 -239q-34 -88 -34 -182q0 -195 123 -325q91 -97 243 -97q135 0 214 79q52 52 68 154h-291v270h704q0 -222 -50 -362q-76 -213 -251 -328 q-169 -110 -400 -110q-376 0 -577 256q-152 194 -152 463z" />
<glyph unicode="H" horiz-adv-x="1509" d="M143 0v1365h355v-527h512v527h355v-1365h-355v568h-512v-568h-355z" />
<glyph unicode="I" horiz-adv-x="642" d="M143 0v1365h355v-1365h-355z" />
<glyph unicode="J" horiz-adv-x="959" d="M14 165l232 237q16 -133 116 -133t100 152v6l-1 75v863h355v-944q0 -83 -10 -136q-21 -113 -121 -204q-129 -118 -315 -118q-220 0 -356 202z" />
<glyph unicode="K" horiz-adv-x="1433" d="M143 0v1365h355v-563l433 563h438l-542 -646l592 -719h-460l-461 592v-592h-355z" />
<glyph unicode="L" horiz-adv-x="963" d="M143 0v1365h355v-1068h426v-297h-781z" />
<glyph unicode="M" horiz-adv-x="1875" d="M82 0l232 1365h350l277 -728l293 728h353l206 -1365h-355l-101 786l-330 -786h-141l-315 786l-116 -786h-353z" />
<glyph unicode="N" horiz-adv-x="1649" d="M143 0v1365h355l653 -835v835h355v-1365h-355l-653 836v-836h-355z" />
<glyph unicode="O" horiz-adv-x="1675" d="M82 678q0 127 50 260.5t134 228.5q211 239 571 239t571 -239q185 -210 185 -489q0 -278 -185 -488q-211 -239 -571 -239q-359 0 -570 239q-185 210 -185 488zM451 678q0 -138 92 -247q114 -135 294 -135t295 134q92 107 92 248q0 144 -92 249q-118 134 -295 134 q-122 0 -221 -68.5t-141 -182.5q-24 -65 -24 -132z" />
<glyph unicode="P" horiz-adv-x="1227" d="M143 0v1365h565q241 0 366 -141q108 -121 108 -309q0 -185 -87 -306q-113 -157 -375 -157h-222v-452h-355zM498 739h118q115 0 158 50q39 45 39 122q0 76 -44.5 121.5t-151.5 45.5h-119v-339z" />
<glyph unicode="Q" horiz-adv-x="1675" d="M82 678q0 280 185 489q212 239 571 239q360 0 571 -239q185 -210 185 -489q0 -268 -180 -482l232 -235l-326 -50l-108 127q-176 -87 -374 -87q-359 0 -571 239q-185 209 -185 488zM451 678q0 -138 92 -247q114 -135 294 -135q51 0 111 15l-219 220l334 41l97 -103 q65 99 65 209q0 141 -93 249q-115 134 -294 134t-294 -135q-93 -109 -93 -248z" />
<glyph unicode="R" horiz-adv-x="1284" d="M143 0v1365h552q242 0 358 -145q94 -117 94 -275q0 -181 -108 -289q-69 -69 -190 -96l429 -560h-442l-338 524v-524h-355zM498 754h66q112 0 161 47q53 51 53 124t-53 123q-50 47 -161 47h-66v-341z" />
<glyph unicode="S" horiz-adv-x="1170" d="M82 119l152 286q160 -144 313 -144q69 0 117 32q56 36 56 102q0 60 -62 100q-46 30 -155 61q-132 39 -166 54q-54 23 -92 54q-109 90 -109 272q0 190 113 315q132 147 352 147q221 0 433 -111l-142 -276q-116 90 -234 90q-57 0 -102 -29q-51 -33 -51 -88q0 -54 67 -93 q30 -18 180 -62q188 -55 268 -156q69 -86 69 -221q0 -346 -304 -451q-106 -37 -228 -37q-256 0 -475 155z" />
<glyph unicode="T" horiz-adv-x="965" d="M14 1068v297h938v-297h-294v-1068h-355v1068h-289z" />
<glyph unicode="U" horiz-adv-x="1477" d="M143 578v787h355v-739q0 -89 3 -133q10 -139 127 -194q48 -23 106 -23q130 0 196 91q49 67 49 259v739h355v-787q0 -123 -20 -210q-31 -135 -148 -246q-166 -157 -444 -157q-283 0 -442 160q-84 84 -115 211q-22 90 -22 242z" />
<glyph unicode="V" horiz-adv-x="1432" d="M0 1365h386l329 -830l332 830h385l-582 -1365h-276z" />
<glyph unicode="W" horiz-adv-x="2076" d="M0 1365h371l237 -882l289 882h282l269 -882l258 882h370l-436 -1365h-362l-249 791l-261 -791h-361z" />
<glyph unicode="X" horiz-adv-x="1455" d="M0 0l534 728l-437 637h437l203 -354l212 354h436l-445 -637l515 -728h-428l-292 444l-306 -444h-429z" />
<glyph unicode="Y" horiz-adv-x="1311" d="M-25 1365h424l258 -372l248 372h430l-511 -709v-656h-355v656z" />
<glyph unicode="Z" horiz-adv-x="1293" d="M27 0l646 1068h-537v297h1129l-643 -1068h573v-297h-1168z" />
<glyph unicode="[" horiz-adv-x="625" d="M115 -205v1307h338v-176h-152v-944h152v-187h-338z" />
<glyph unicode="\" horiz-adv-x="565" d="M0 1194h160l381 -1194h-146z" />
<glyph unicode="]" horiz-adv-x="625" d="M164 -18h151v944h-151v176h338v-1307h-338v187z" />
<glyph unicode="^" horiz-adv-x="788" d="M27 436l317 701h107l317 -701h-119l-252 568l-252 -568h-118z" />
<glyph unicode="_" horiz-adv-x="1032" d="M0 -145h1053v-113h-1053v113z" />
<glyph unicode="`" horiz-adv-x="1024" d="M197 1344l208 149l259 -316l-152 -112z" />
<glyph unicode="a" horiz-adv-x="1270" d="M75 465q0 238 165 380q131 113 301 113q99 0 186 -42q50 -24 103 -79v91h328v-928h-328v103q-47 -59 -95 -86q-84 -47 -191 -47q-173 0 -308 119q-161 142 -161 376zM416 464q0 -77 51 -137q62 -74 161 -74q89 0 150.5 61t61.5 150q0 88 -62 149.5t-150 61.5 q-98 0 -161 -74q-51 -60 -51 -137z" />
<glyph unicode="b" horiz-adv-x="1270" d="M112 0v1502h328v-665q53 55 103 79q87 42 186 42q170 0 301 -113q165 -142 165 -380q0 -234 -161 -376q-135 -119 -308 -119q-107 0 -191 47q-51 28 -95 86v-103h-328zM430 464q0 -88 62 -149.5t150 -61.5q99 0 161 74q51 61 51 137q0 77 -51 137q-63 74 -161 74 q-88 0 -150 -61.5t-62 -149.5z" />
<glyph unicode="c" horiz-adv-x="887" d="M75 463q0 184 120 322q149 172 403 172q114 0 214 -52v-279q-87 61 -170 61q-98 0 -162 -63t-64 -161t64 -161t162 -63q82 0 170 60v-279q-102 -51 -214 -51q-254 0 -403 172q-120 139 -120 322z" />
<glyph unicode="d" horiz-adv-x="1270" d="M75 465q0 238 165 380q131 113 301 113q99 0 186 -42q50 -24 103 -79v665h328v-1502h-328v103q-47 -59 -95 -86q-84 -47 -191 -47q-173 0 -308 119q-161 142 -161 376zM416 464q0 -77 51 -137q62 -74 161 -74q89 0 150.5 61t61.5 150q0 88 -62 149.5t-150 61.5 q-98 0 -161 -74q-51 -60 -51 -137z" />
<glyph unicode="e" horiz-adv-x="1172" d="M75 454q0 222 135 361t381 139q303 0 433 -220q73 -124 73 -288v-42h-690q0 -209 202 -209q103 0 158 88h317q-38 -126 -112 -195q-134 -125 -359 -125q-286 0 -430 174q-108 130 -108 317zM416 592h375q-35 154 -187 154q-84 0 -136 -49q-41 -39 -52 -105z" />
<glyph unicode="f" horiz-adv-x="708" d="M22 658v270h117v123q0 205 104 316q129 138 310 138q72 0 145 -34v-286q-67 37 -115 37q-67 0 -98 -51q-18 -29 -18 -143v-100h231v-270h-231v-658h-328v658h-117z" />
<glyph unicode="g" horiz-adv-x="1263" d="M75 450q0 228 145 371q135 133 325 133q101 0 180 -41q47 -25 98 -82v97h328v-864q0 -122 -17 -197q-27 -120 -140 -215q-143 -120 -380 -120q-248 0 -395 131q-98 87 -125 182q-3 10 -8 42h369q16 -46 43 -66q44 -33 112 -33q114 0 175 81q38 51 38 146v88 q-59 -54 -99 -76q-83 -46 -196 -46q-142 0 -254 73q-115 75 -165 205q-34 88 -34 191zM416 467q0 -89 61.5 -152.5t150.5 -63.5q88 0 149.5 63.5t61.5 152.5t-61 153t-150 64q-99 0 -162 -76q-50 -61 -50 -141z" />
<glyph unicode="h" horiz-adv-x="1203" d="M112 0v1502h328v-691q57 66 105 93q79 45 195 45q148 0 244 -82q107 -92 107 -276v-591h-328v470q0 124 -28 164q-41 59 -123 59q-76 0 -126 -51q-46 -47 -46 -145v-497h-328z" />
<glyph unicode="i" horiz-adv-x="552" d="M91 1285q0 77 53.5 130.5t130.5 53.5t131 -53.5t54 -130.5q0 -78 -53.5 -131.5t-131.5 -53.5q-77 0 -130.5 54t-53.5 131zM111 0v928h328v-928h-328z" />
<glyph unicode="j" horiz-adv-x="552" d="M91 1285q0 77 53.5 130.5t130.5 53.5t131 -53.5t54 -130.5q0 -78 -53.5 -131.5t-131.5 -53.5q-77 0 -130.5 54t-53.5 131zM111 -464v1392h328v-1392h-328z" />
<glyph unicode="k" horiz-adv-x="1264" d="M112 0v1502h328v-908l343 334h450l-465 -428l493 -500h-460l-361 378v-378h-328z" />
<glyph unicode="l" horiz-adv-x="552" d="M112 0v1502h328v-1502h-328z" />
<glyph unicode="m" horiz-adv-x="1795" d="M112 0v928h328v-114q58 56 106 82q87 47 194 47q137 0 228 -71q46 -36 88 -102q38 62 85 98q99 76 226 76q104 0 185 -50q87 -55 114 -149q16 -57 16 -142v-603h-328v459q0 120 -25 164q-37 65 -111 65q-82 0 -126 -71q-31 -50 -31 -158v-459h-328v459q0 120 -20 156 q-40 72 -123 72q-77 0 -120 -62q-16 -22 -23 -60.5t-7 -105.5v-459h-328z" />
<glyph unicode="n" horiz-adv-x="1203" d="M112 0v928h328v-117q57 66 105 93q78 44 195 44q150 0 244 -81q107 -92 107 -276v-591h-328v470q0 123 -28 163q-41 59 -123 59q-75 0 -126 -51q-46 -46 -46 -144v-497h-328z" />
<glyph unicode="o" horiz-adv-x="1267" d="M75 472q0 181 128 321q155 169 441 169q263 0 420 -169q128 -138 128 -329q0 -193 -127 -331q-154 -168 -431 -168q-278 0 -432 168q-127 138 -127 339zM416 464q0 -79 52 -140q64 -76 166 -76q91 0 154 62.5t63 153.5q0 90 -63.5 152.5t-153.5 62.5q-102 0 -166 -76 q-52 -61 -52 -139z" />
<glyph unicode="p" horiz-adv-x="1270" d="M112 -464v1392h328v-103q44 58 95 86q84 47 191 47q173 0 308 -119q161 -142 161 -376q0 -238 -165 -380q-131 -113 -301 -113q-99 0 -186 42q-50 24 -103 79v-555h-328zM430 464q0 -88 62 -149.5t150 -61.5q99 0 161 74q51 60 51 137q0 79 -50 137q-63 74 -162 74 q-89 0 -150.5 -61t-61.5 -150z" />
<glyph unicode="q" horiz-adv-x="1270" d="M75 463q0 234 161 376q135 119 308 119q107 0 191 -47q48 -27 95 -86v103h328v-1392h-328v555q-53 -55 -103 -79q-87 -42 -186 -42q-170 0 -301 113q-165 142 -165 380zM416 464q0 -77 51 -137q62 -74 161 -74q88 0 150 61.5t62 149.5q0 89 -61.5 150t-150.5 61 q-99 0 -161 -74q-51 -60 -51 -137z" />
<glyph unicode="r" horiz-adv-x="842" d="M112 0v928h328v-152q52 81 112 117q81 48 192 48q26 0 64 -3v-313q-69 33 -140 33q-162 0 -210 -132q-18 -48 -18 -129v-397h-328z" />
<glyph unicode="s" horiz-adv-x="922" d="M55 72l119 232q141 -93 262 -93q103 0 103 71q0 37 -36 57q-23 13 -104 31q-91 20 -119 31q-100 39 -135 122q-19 45 -19 108q0 122 83 213q107 117 330 117q155 0 301 -60l-111 -212q-92 47 -176 47q-99 0 -99 -68q0 -31 40 -50q18 -9 106 -27q129 -27 190 -86 q77 -74 77 -192q0 -148 -106 -242q-119 -106 -335 -106q-191 0 -371 107z" />
<glyph unicode="t" horiz-adv-x="675" d="M42 658v270h108v279h328v-279h187v-270h-187v-658h-328v658h-108z" />
<glyph unicode="u" horiz-adv-x="1212" d="M112 339v589h328v-526q0 -87 42 -128q45 -44 125 -44q79 0 124 44q42 41 42 128v526h328v-589q0 -259 -245 -344q-102 -35 -249 -35q-289 0 -415 142q-80 90 -80 237z" />
<glyph unicode="v" horiz-adv-x="1181" d="M0 928h369l222 -476l223 476h367l-483 -928h-219z" />
<glyph unicode="w" horiz-adv-x="1857" d="M0 928h366l222 -489l233 489h206l232 -503l233 503h365l-486 -928h-219l-232 509l-222 -509h-221z" />
<glyph unicode="x" horiz-adv-x="1344" d="M0 0l464 504l-377 424h427l160 -191l163 191h426l-384 -424l465 -504h-434l-239 276l-238 -276h-433z" />
<glyph unicode="y" horiz-adv-x="1246" d="M0 928h381l248 -476l241 476h376l-745 -1392h-368l315 591z" />
<glyph unicode="z" horiz-adv-x="1067" d="M41 0l438 658h-379v270h926l-435 -658h391v-270h-941z" />
<glyph unicode="{" horiz-adv-x="983" d="M225 553q102 16 139 116q23 64 23 191q0 37 -3 120q-3 79 -3 120q1 149 45 220q57 93 199 93q32 0 69 -6q-172 -45 -174 -303q0 -47 5 -138q5 -95 5 -137q0 -123 -28 -184q-37 -79 -131 -92q94 -13 131 -92q28 -62 28 -185q0 -42 -5 -134.5t-5 -139.5q2 -258 174 -303 q-37 -6 -69 -6q-142 0 -199 93q-44 71 -45 220q0 41 3 120q3 83 3 120q0 127 -23 191q-37 100 -139 116z" />
<glyph unicode="|" horiz-adv-x="258" d="M66 0v1194h129v-1194h-129z" />
<glyph unicode="}" horiz-adv-x="983" d="M289 -301q172 45 174 303q0 47 -5 139.5t-5 134.5q0 123 28 185q37 79 131 92q-94 13 -131 92q-28 61 -28 184q0 42 5 137q5 91 5 138q-2 258 -174 303q37 6 69 6q142 0 199 -93q44 -71 45 -220q0 -41 -3 -120q-3 -83 -3 -120q0 -127 23 -191q37 -100 139 -116 q-102 -16 -139 -116q-23 -64 -23 -191q0 -37 3 -120q3 -79 3 -120q-1 -149 -45 -220q-57 -93 -199 -93q-32 0 -69 6z" />
<glyph unicode="~" horiz-adv-x="1112" d="M20 471q123 217 305 217q74 0 240 -76q53 -18 105 -37q61 -21 104 -21q116 0 209 155l98 -64q-135 -237 -311 -237q-61 0 -134 29l-104 46q-121 70 -202 70q-69 0 -127 -51q-40 -36 -107 -131z" />
<glyph unicode="&#xa1;" horiz-adv-x="510" d="M119 850q0 48 35.5 84.5t85.5 36.5q51 0 86.5 -36.5t35.5 -84.5q0 -53 -35.5 -90t-86.5 -37t-86 37t-35 90zM129 -2v686h215v-686h-215z" />
<glyph unicode="&#xa2;" horiz-adv-x="1229" d="M248 681q0 263 203 405q99 69 255 91v168h167v-180q51 -11 107 -31v-298q-82 69 -167 69q-95 0 -159.5 -63.5t-64.5 -158.5q0 -110 77 -172q64 -52 146 -52q48 0 100 22q35 15 68 48v-292q-33 -12 -107 -29v-189h-167v177q-16 1 -37 3q-179 20 -307 169 q-114 133 -114 313z" />
<glyph unicode="&#xa3;" d="M104 0v201q107 0 107 94q0 65 -29 154h-78v90h54q-19 79 -19 129q0 130 89 215q93 90 245 90q279 0 299 -262h-194q0 36 -33 62t-72 26q-127 0 -127 -117q0 -26 9 -71q12 -59 14 -72h147v-90h-133q14 -79 14 -130q0 -69 -24 -118h391v-201h-660z" />
<glyph unicode="&#xa4;" horiz-adv-x="1365" d="M40 1268l145 145l213 -213q137 89 292 89q140 0 275 -87l211 209l144 -144l-209 -209q93 -147 93 -285q0 -144 -89 -280l211 -211l-143 -144l-210 210q-138 -92 -290 -92q-141 0 -288 91l-210 -209l-143 143l210 211q-89 131 -89 281q0 147 91 282zM392 773 q0 -120 85.5 -202.5t205.5 -82.5q135 0 222 100q70 80 70 185q0 120 -85.5 202t-206.5 82q-133 0 -221 -100q-70 -79 -70 -184z" />
<glyph unicode="&#xa5;" horiz-adv-x="1229" d="M7 1365h404l208 -392l198 392h405l-298 -476h196v-215h-329l-12 -19v-107h341v-215h-341v-333h-341v333h-329v215h329v107l-11 19h-318v215h187z" />
<glyph unicode="&#xa6;" horiz-adv-x="1024" d="M317 314h389v-655h-389v655zM317 625v740h389v-740h-389z" />
<glyph unicode="&#xa7;" horiz-adv-x="735" d="M86 543q0 131 111 202q-111 81 -111 216q0 105 76 175t200 70q147 0 215 -94q50 -69 50 -170h-162q0 117 -96 117q-109 0 -109 -98q0 -83 135 -136q116 -45 156 -77q88 -70 88 -195q0 -140 -100 -215q100 -71 100 -203q0 -115 -72 -190q-76 -78 -200 -78q-277 0 -277 285 h176q0 -138 99 -138q108 0 108 113q0 84 -143 135q-244 86 -244 281zM260 543q0 -37 30 -68.5t75 -42.5q108 0 108 113q0 68 -76 96h-28q-109 0 -109 -98z" />
<glyph unicode="&#xa8;" horiz-adv-x="1024" d="M103 1250q0 74 51.5 125.5t125.5 51.5t126 -51.5t52 -125.5t-52 -126t-126 -52t-125.5 52t-51.5 126zM567 1250q0 74 51.5 125.5t125.5 51.5t126 -51.5t52 -125.5t-52 -126t-126 -52t-125.5 52t-51.5 126z" />
<glyph unicode="&#xa9;" horiz-adv-x="1556" d="M68 683q0 268 172 466q214 247 543 247q258 0 456 -170q249 -214 249 -543q0 -330 -248 -543q-199 -171 -457 -171q-328 0 -542 248q-173 201 -173 466zM211 683q0 -271 202 -446q159 -138 369 -138q206 0 365 140q198 175 198 444q0 218 -136 379q-173 204 -435 204 q-203 0 -362 -138q-201 -174 -201 -445zM366 679q0 245 219 369q108 61 230 61q80 0 203 -41l9 -3v-292l-24 27q-73 82 -177 82q-92 0 -149.5 -56t-57.5 -148q0 -87 58.5 -143t145.5 -56q98 0 181 79l23 22v-286l-10 -3q-130 -39 -198 -39q-201 0 -341 142 q-112 114 -112 285z" />
<glyph unicode="&#xaa;" horiz-adv-x="743" d="M45 1078q0 139 96 222q76 65 177 65q103 0 169 -70v53h191v-543h-191v60q-62 -78 -167 -78q-102 0 -181 70q-94 83 -94 221zM64 580v123h620v-123h-620zM246 1076q0 -51 36 -88t87 -37q52 0 87.5 36.5t35.5 88.5t-35.5 88.5t-87.5 36.5t-87.5 -36.5t-35.5 -88.5z" />
<glyph unicode="&#xab;" horiz-adv-x="1087" d="M57 467l311 444l181 -124l-228 -320l234 -315l-187 -131zM508 467l311 444l181 -124l-228 -320l233 -315l-186 -131z" />
<glyph unicode="&#xac;" horiz-adv-x="1024" d="M68 270v338h887v-608h-382v270h-505z" />
<glyph unicode="&#xad;" horiz-adv-x="1229" d="M130 348v270h969v-270h-969z" />
<glyph unicode="&#xae;" horiz-adv-x="1556" d="M68 683q0 268 172 466q214 247 543 247q258 0 456 -170q249 -214 249 -543q0 -330 -248 -543q-199 -171 -457 -171q-328 0 -542 248q-173 201 -173 466zM211 683q0 -271 202 -446q159 -138 369 -138q206 0 365 140q198 175 198 444q0 218 -136 379q-173 204 -435 204 q-203 0 -362 -138q-201 -174 -201 -445zM418 273v819h355q154 0 231 -91q62 -74 62 -169q0 -108 -71 -175q-36 -34 -102 -54l270 -330h-310l-189 274v-274h-246zM664 738h28q89 0 113 51q8 17 8 32q0 35 -28 59t-93 24h-28v-166z" />
<glyph unicode="&#xaf;" horiz-adv-x="1024" d="M154 1106v201h717v-201h-717z" />
<glyph unicode="&#xb0;" horiz-adv-x="793" d="M84 1038q0 129 92 221.5t221 92.5t221.5 -92.5t92.5 -221.5q0 -128 -92 -219.5t-222 -91.5q-129 0 -221 91.5t-92 219.5zM170 1038q0 -96 67.5 -163.5t163.5 -67.5q97 0 164.5 67.5t67.5 163.5q0 97 -67.5 164.5t-164.5 67.5q-96 0 -163.5 -67.5t-67.5 -164.5z" />
<glyph unicode="&#xb1;" horiz-adv-x="1249" d="M166 0h954v-123h-954v123zM166 385v123h416v434h123v-434h415v-123h-415v-303h-123v303h-416z" />
<glyph unicode="&#xb2;" horiz-adv-x="567" d="M84 1085v31q0 83 60 137q57 52 141 52q92 0 151 -50q68 -55 68 -155q0 -82 -53 -144l-195 -223h250v-104h-416v84l250 284q37 42 37 101q0 42 -25 71t-63 29q-84 0 -84 -113h-121z" />
<glyph unicode="&#xb3;" horiz-adv-x="567" d="M61 795v18h115q0 -129 103 -129q88 0 88 119q0 81 -61 109q-18 8 -97 18v80q145 0 145 108q0 35 -22.5 62.5t-57.5 27.5q-77 0 -77 -94h-119v31q0 67 56 113.5t147 46.5q76 0 129 -42q63 -51 63 -147q0 -107 -90 -143q102 -44 102 -182q0 -87 -58 -144t-155 -57 q-211 0 -211 205z" />
<glyph unicode="&#xb4;" horiz-adv-x="1024" d="M361 1177l259 316l208 -149l-315 -279z" />
<glyph unicode="&#xb5;" horiz-adv-x="1212" d="M112 -464v1392h328v-530q0 -60 17 -91q42 -77 150 -77q79 0 124 44q42 41 42 128v526h328v-589q0 -255 -242 -343q-102 -36 -230 -36q-117 0 -216 35l27 -459h-328z" />
<glyph unicode="&#xb6;" horiz-adv-x="1229" d="M-10 1006q0 193 141 287q108 72 330 72h684v-201h-150v-1352h-222v1352h-172v-1352h-222v846l-21 -1q-69 -3 -151 27q-142 52 -192 182q-25 65 -25 140z" />
<glyph unicode="&#xb7;" horiz-adv-x="621" d="M99 485q0 78 50 137q63 74 161 74q88 0 150 -61.5t62 -149.5q0 -89 -61.5 -150.5t-150.5 -61.5q-98 0 -160 74q-51 61 -51 138z" />
<glyph unicode="&#xb8;" horiz-adv-x="1024" d="M288 -345q102 -11 149 -11q165 0 165 94q0 84 -127 84q-70 0 -131 -20l57 218h148l-21 -92q107 0 177 -39q88 -50 88 -150q0 -117 -124 -175q-94 -43 -226 -43q-49 0 -155 16v118z" />
<glyph unicode="&#xb9;" horiz-adv-x="567" d="M96 1077v109q94 27 156 100h106v-657h-120v514q-86 -58 -142 -66z" />
<glyph unicode="&#xba;" horiz-adv-x="740" d="M44 1076q0 111 75 193q91 99 251 99q161 0 252 -98q75 -81 75 -194q0 -112 -75 -193q-90 -98 -252 -98q-161 0 -251 98q-75 81 -75 193zM60 580v123h620v-123h-620zM245 1077q0 -52 36.5 -90t88.5 -38q53 0 89.5 37.5t36.5 90.5t-36.5 90t-89.5 37q-52 0 -88.5 -37.5 t-36.5 -89.5z" />
<glyph unicode="&#xbb;" horiz-adv-x="1087" d="M82 152l233 315l-228 320l182 124l311 -444l-311 -446zM533 152l233 315l-228 320l181 124l311 -444l-311 -446z" />
<glyph unicode="&#xbc;" horiz-adv-x="1360" d="M72 862v109q94 27 155 100h107v-657h-121v514q-86 -58 -141 -66zM301 -25l600 1112h121l-588 -1112h-133zM838 143v138l209 366h167v-395h95v-109h-95v-143h-120v143h-256zM938 252h156v262z" />
<glyph unicode="&#xbd;" horiz-adv-x="1360" d="M72 862v109q94 27 155 100h107v-657h-121v514q-86 -58 -141 -66zM272 -14l596 1110h123l-590 -1110h-129zM868 457v30q0 83 59 136t142 53q92 0 152 -50q67 -55 67 -155q0 -82 -53 -143l-195 -224h250v-104h-416v84l250 285q37 42 37 100q0 42 -25 71t-63 29 q-84 0 -84 -112h-121z" />
<glyph unicode="&#xbe;" horiz-adv-x="1360" d="M61 580v18h115q0 -129 103 -129q88 0 88 119q0 81 -61 109q-18 8 -97 18v80q145 0 145 108q0 35 -22.5 62.5t-57.5 27.5q-77 0 -77 -94h-119v31q0 67 56 113.5t147 46.5q76 0 129 -42q63 -51 63 -147q0 -107 -90 -143q102 -44 102 -183q0 -86 -58 -143t-155 -57 q-211 0 -211 205zM354 -20l596 1107h123l-588 -1107h-131zM838 143v138l209 366h167v-395h95v-109h-95v-143h-120v143h-256zM938 252h156v262z" />
<glyph unicode="&#xbf;" horiz-adv-x="965" d="M84 317q0 157 93 244q70 66 142 66v53h201v-244q-54 23 -84 23q-59 0 -99 -41t-40 -99t42 -99.5t97 -41.5q49 0 92 38t50 87l206 -27q-26 -127 -114 -208q-96 -88 -234 -88q-155 0 -253.5 95t-98.5 242zM301 844q0 49 34.5 83t84.5 34q49 0 84 -34t35 -83t-35 -84 t-84 -35t-84 35t-35 84z" />
<glyph unicode="&#xc0;" horiz-adv-x="1454" d="M417 1807l208 149l259 -316l-152 -112zM14 0l525 1365h387l514 -1365h-379l-88 238h-490l-94 -238h-375zM581 508h296l-147 435z" />
<glyph unicode="&#xc1;" horiz-adv-x="1454" d="M581 1640l259 316l208 -149l-315 -279zM14 0l525 1365h387l514 -1365h-379l-88 238h-490l-94 -238h-375zM581 508h296l-147 435z" />
<glyph unicode="&#xc2;" horiz-adv-x="1454" d="M362 1528l317 701h107l317 -701h-119l-252 568l-252 -568h-118zM14 0l525 1365h387l514 -1365h-379l-88 238h-490l-94 -238h-375zM581 508h296l-147 435z" />
<glyph unicode="&#xc3;" horiz-adv-x="1454" d="M202 1628q123 217 305 217q74 0 240 -76q53 -18 105 -37q61 -21 104 -21q116 0 209 155l98 -64q-135 -237 -311 -237q-61 0 -134 29l-104 46q-121 70 -202 70q-69 0 -127 -51q-40 -36 -107 -131zM14 0l525 1365h387l514 -1365h-379l-88 238h-490l-94 -238h-375zM581 508 h296l-147 435z" />
<glyph unicode="&#xc4;" horiz-adv-x="1454" d="M323 1706q0 74 51.5 125.5t125.5 51.5t126 -51.5t52 -125.5t-52 -126t-126 -52t-125.5 52t-51.5 126zM787 1706q0 74 51.5 125.5t125.5 51.5t126 -51.5t52 -125.5t-52 -126t-126 -52t-125.5 52t-51.5 126zM14 0l525 1365h387l514 -1365h-379l-88 238h-490l-94 -238h-375z M581 508h296l-147 435z" />
<glyph unicode="&#xc5;" horiz-adv-x="1454" d="M419 1696q0 129 92 221.5t221 92.5t221.5 -92.5t92.5 -221.5q0 -128 -92 -219.5t-222 -91.5q-129 0 -221 91.5t-92 219.5zM505 1696q0 -96 67.5 -163.5t163.5 -67.5q97 0 164.5 67.5t67.5 163.5q0 97 -67.5 164.5t-164.5 67.5q-96 0 -163.5 -67.5t-67.5 -164.5zM14 0 l525 1365h387l514 -1365h-379l-88 238h-490l-94 -238h-375zM581 508h296l-147 435z" />
<glyph unicode="&#xc7;" horiz-adv-x="1208" d="M617 -385q102 -11 149 -11q165 0 165 94q0 84 -127 84q-70 0 -131 -20l57 218h148l-21 -92q107 0 177 -39q88 -50 88 -150q0 -117 -124 -175q-94 -43 -226 -43q-49 0 -155 16v118zM82 678q0 340 260 551q204 165 465 165q142 0 319 -69v-425q-50 61 -102 92 q-95 57 -204 57q-138 0 -240 -83q-129 -105 -129 -288q0 -182 129 -287q102 -83 240 -83q109 0 204 57q51 30 102 92v-425q-174 -69 -322 -69q-258 0 -462 165q-260 211 -260 550z" />
<glyph unicode="&#xc8;" horiz-adv-x="1002" d="M217 1807l208 149l259 -316l-152 -112zM143 0v1365h777v-297h-422v-231h399v-297h-399v-243h422v-297h-777z" />
<glyph unicode="&#xc9;" horiz-adv-x="1002" d="M379 1640l259 316l208 -149l-315 -279zM143 0v1365h777v-297h-422v-231h399v-297h-399v-243h422v-297h-777z" />
<glyph unicode="&#xca;" horiz-adv-x="1002" d="M161 1528l317 701h107l317 -701h-119l-252 568l-252 -568h-118zM143 0v1365h777v-297h-422v-231h399v-297h-399v-243h422v-297h-777z" />
<glyph unicode="&#xcb;" horiz-adv-x="1002" d="M122 1706q0 74 51.5 125.5t125.5 51.5t126 -51.5t52 -125.5t-52 -126t-126 -52t-125.5 52t-51.5 126zM586 1706q0 74 51.5 125.5t125.5 51.5t126 -51.5t52 -125.5t-52 -126t-126 -52t-125.5 52t-51.5 126zM143 0v1365h777v-297h-422v-231h399v-297h-399v-243h422v-297 h-777z" />
<glyph unicode="&#xcc;" horiz-adv-x="642" d="M5 1807l208 149l259 -316l-152 -112zM143 0v1365h355v-1365h-355z" />
<glyph unicode="&#xcd;" horiz-adv-x="642" d="M169 1640l259 316l208 -149l-315 -279zM143 0v1365h355v-1365h-355z" />
<glyph unicode="&#xce;" horiz-adv-x="642" d="M-50 1528l317 701h107l317 -701h-119l-252 568l-252 -568h-118zM143 0v1365h355v-1365h-355z" />
<glyph unicode="&#xcf;" horiz-adv-x="642" d="M-89 1706q0 74 51.5 125.5t125.5 51.5t126 -51.5t52 -125.5t-52 -126t-126 -52t-125.5 52t-51.5 126zM375 1706q0 74 51.5 125.5t125.5 51.5t126 -51.5t52 -125.5t-52 -126t-126 -52t-125.5 52t-51.5 126zM143 0v1365h355v-1365h-355z" />
<glyph unicode="&#xd1;" horiz-adv-x="1649" d="M294 1628q123 217 305 217q74 0 240 -76q53 -18 105 -37q61 -21 104 -21q116 0 209 155l98 -64q-135 -237 -311 -237q-61 0 -134 29l-104 46q-121 70 -202 70q-69 0 -127 -51q-40 -36 -107 -131zM143 0v1365h355l653 -835v835h355v-1365h-355l-653 836v-836h-355z" />
<glyph unicode="&#xd2;" horiz-adv-x="1675" d="M522 1807l208 149l259 -316l-152 -112zM82 678q0 127 50 260.5t134 228.5q211 239 571 239t571 -239q185 -210 185 -489q0 -278 -185 -488q-211 -239 -571 -239q-359 0 -570 239q-185 210 -185 488zM451 678q0 -138 92 -247q114 -135 294 -135t295 134q92 107 92 248 q0 144 -92 249q-118 134 -295 134q-122 0 -221 -68.5t-141 -182.5q-24 -65 -24 -132z" />
<glyph unicode="&#xd3;" horiz-adv-x="1675" d="M685 1640l259 316l208 -149l-315 -279zM82 678q0 127 50 260.5t134 228.5q211 239 571 239t571 -239q185 -210 185 -489q0 -278 -185 -488q-211 -239 -571 -239q-359 0 -570 239q-185 210 -185 488zM451 678q0 -138 92 -247q114 -135 294 -135t295 134q92 107 92 248 q0 144 -92 249q-118 134 -295 134q-122 0 -221 -68.5t-141 -182.5q-24 -65 -24 -132z" />
<glyph unicode="&#xd4;" horiz-adv-x="1675" d="M467 1528l317 701h107l317 -701h-119l-252 568l-252 -568h-118zM82 678q0 127 50 260.5t134 228.5q211 239 571 239t571 -239q185 -210 185 -489q0 -278 -185 -488q-211 -239 -571 -239q-359 0 -570 239q-185 210 -185 488zM451 678q0 -138 92 -247q114 -135 294 -135 t295 134q92 107 92 248q0 144 -92 249q-118 134 -295 134q-122 0 -221 -68.5t-141 -182.5q-24 -65 -24 -132z" />
<glyph unicode="&#xd5;" horiz-adv-x="1675" d="M306 1628q123 217 305 217q74 0 240 -76q53 -18 105 -37q61 -21 104 -21q116 0 209 155l98 -64q-135 -237 -311 -237q-61 0 -134 29l-104 46q-121 70 -202 70q-69 0 -127 -51q-40 -36 -107 -131zM82 678q0 127 50 260.5t134 228.5q211 239 571 239t571 -239 q185 -210 185 -489q0 -278 -185 -488q-211 -239 -571 -239q-359 0 -570 239q-185 210 -185 488zM451 678q0 -138 92 -247q114 -135 294 -135t295 134q92 107 92 248q0 144 -92 249q-118 134 -295 134q-122 0 -221 -68.5t-141 -182.5q-24 -65 -24 -132z" />
<glyph unicode="&#xd6;" horiz-adv-x="1675" d="M427 1706q0 74 51.5 125.5t125.5 51.5t126 -51.5t52 -125.5t-52 -126t-126 -52t-125.5 52t-51.5 126zM891 1706q0 74 51.5 125.5t125.5 51.5t126 -51.5t52 -125.5t-52 -126t-126 -52t-125.5 52t-51.5 126zM82 678q0 127 50 260.5t134 228.5q211 239 571 239t571 -239 q185 -210 185 -489q0 -278 -185 -488q-211 -239 -571 -239q-359 0 -570 239q-185 210 -185 488zM451 678q0 -138 92 -247q114 -135 294 -135t295 134q92 107 92 248q0 144 -92 249q-118 134 -295 134q-122 0 -221 -68.5t-141 -182.5q-24 -65 -24 -132z" />
<glyph unicode="&#xd7;" horiz-adv-x="1249" d="M207 80l362 373l-362 366l74 74l362 -367l363 373l67 -74l-356 -372l356 -373l-67 -74l-363 373l-362 -373z" />
<glyph unicode="&#xd9;" horiz-adv-x="1477" d="M423 1807l208 149l259 -316l-152 -112zM143 578v787h355v-739q0 -89 3 -133q10 -139 127 -194q48 -23 106 -23q130 0 196 91q49 67 49 259v739h355v-787q0 -123 -20 -210q-31 -135 -148 -246q-166 -157 -444 -157q-283 0 -442 160q-84 84 -115 211q-22 90 -22 242z" />
<glyph unicode="&#xda;" horiz-adv-x="1477" d="M587 1640l259 316l208 -149l-315 -279zM143 578v787h355v-739q0 -89 3 -133q10 -139 127 -194q48 -23 106 -23q130 0 196 91q49 67 49 259v739h355v-787q0 -123 -20 -210q-31 -135 -148 -246q-166 -157 -444 -157q-283 0 -442 160q-84 84 -115 211q-22 90 -22 242z" />
<glyph unicode="&#xdb;" horiz-adv-x="1477" d="M368 1528l317 701h107l317 -701h-119l-252 568l-252 -568h-118zM143 578v787h355v-739q0 -89 3 -133q10 -139 127 -194q48 -23 106 -23q130 0 196 91q49 67 49 259v739h355v-787q0 -123 -20 -210q-31 -135 -148 -246q-166 -157 -444 -157q-283 0 -442 160 q-84 84 -115 211q-22 90 -22 242z" />
<glyph unicode="&#xdc;" horiz-adv-x="1477" d="M329 1706q0 74 51.5 125.5t125.5 51.5t126 -51.5t52 -125.5t-52 -126t-126 -52t-125.5 52t-51.5 126zM793 1706q0 74 51.5 125.5t125.5 51.5t126 -51.5t52 -125.5t-52 -126t-126 -52t-125.5 52t-51.5 126zM143 578v787h355v-739q0 -89 3 -133q10 -139 127 -194 q48 -23 106 -23q130 0 196 91q49 67 49 259v739h355v-787q0 -123 -20 -210q-31 -135 -148 -246q-166 -157 -444 -157q-283 0 -442 160q-84 84 -115 211q-22 90 -22 242z" />
<glyph unicode="&#xdd;" horiz-adv-x="1311" d="M503 1640l259 316l208 -149l-315 -279zM-25 1365h424l258 -372l248 372h430l-511 -709v-656h-355v656z" />
<glyph unicode="&#xe0;" horiz-adv-x="1270" d="M226 1363l208 149l259 -316l-152 -112zM75 465q0 238 165 380q131 113 301 113q99 0 186 -42q50 -24 103 -79v91h328v-928h-328v103q-47 -59 -95 -86q-84 -47 -191 -47q-173 0 -308 119q-161 142 -161 376zM416 464q0 -77 51 -137q62 -74 161 -74q89 0 150.5 61t61.5 150 q0 88 -62 149.5t-150 61.5q-98 0 -161 -74q-51 -60 -51 -137z" />
<glyph unicode="&#xe1;" horiz-adv-x="1270" d="M389 1196l259 316l208 -149l-315 -279zM75 465q0 238 165 380q131 113 301 113q99 0 186 -42q50 -24 103 -79v91h328v-928h-328v103q-47 -59 -95 -86q-84 -47 -191 -47q-173 0 -308 119q-161 142 -161 376zM416 464q0 -77 51 -137q62 -74 161 -74q89 0 150.5 61t61.5 150 q0 88 -62 149.5t-150 61.5q-98 0 -161 -74q-51 -60 -51 -137z" />
<glyph unicode="&#xe2;" horiz-adv-x="1270" d="M171 1084l317 701h107l317 -701h-119l-252 568l-252 -568h-118zM75 465q0 238 165 380q131 113 301 113q99 0 186 -42q50 -24 103 -79v91h328v-928h-328v103q-47 -59 -95 -86q-84 -47 -191 -47q-173 0 -308 119q-161 142 -161 376zM416 464q0 -77 51 -137q62 -74 161 -74 q89 0 150.5 61t61.5 150q0 88 -62 149.5t-150 61.5q-98 0 -161 -74q-51 -60 -51 -137z" />
<glyph unicode="&#xe3;" horiz-adv-x="1270" d="M10 1184q123 217 305 217q74 0 240 -76q53 -18 105 -37q61 -21 104 -21q116 0 209 155l98 -64q-135 -237 -311 -237q-61 0 -134 29l-104 46q-121 70 -202 70q-69 0 -127 -51q-40 -36 -107 -131zM75 465q0 238 165 380q131 113 301 113q99 0 186 -42q50 -24 103 -79v91 h328v-928h-328v103q-47 -59 -95 -86q-84 -47 -191 -47q-173 0 -308 119q-161 142 -161 376zM416 464q0 -77 51 -137q62 -74 161 -74q89 0 150.5 61t61.5 150q0 88 -62 149.5t-150 61.5q-98 0 -161 -74q-51 -60 -51 -137z" />
<glyph unicode="&#xe4;" horiz-adv-x="1270" d="M131 1262q0 74 51.5 125.5t125.5 51.5t126 -51.5t52 -125.5t-52 -126t-126 -52t-125.5 52t-51.5 126zM595 1262q0 74 51.5 125.5t125.5 51.5t126 -51.5t52 -125.5t-52 -126t-126 -52t-125.5 52t-51.5 126zM75 465q0 238 165 380q131 113 301 113q99 0 186 -42 q50 -24 103 -79v91h328v-928h-328v103q-47 -59 -95 -86q-84 -47 -191 -47q-173 0 -308 119q-161 142 -161 376zM416 464q0 -77 51 -137q62 -74 161 -74q89 0 150.5 61t61.5 150q0 88 -62 149.5t-150 61.5q-98 0 -161 -74q-51 -60 -51 -137z" />
<glyph unicode="&#xe5;" horiz-adv-x="1270" d="M228 1395q0 129 92 221.5t221 92.5t221.5 -92.5t92.5 -221.5q0 -128 -92 -219.5t-222 -91.5q-129 0 -221 91.5t-92 219.5zM314 1395q0 -96 67.5 -163.5t163.5 -67.5q97 0 164.5 67.5t67.5 163.5q0 97 -67.5 164.5t-164.5 67.5q-96 0 -163.5 -67.5t-67.5 -164.5zM75 465 q0 238 165 380q131 113 301 113q99 0 186 -42q50 -24 103 -79v91h328v-928h-328v103q-47 -59 -95 -86q-84 -47 -191 -47q-173 0 -308 119q-161 142 -161 376zM416 464q0 -77 51 -137q62 -74 161 -74q89 0 150.5 61t61.5 150q0 88 -62 149.5t-150 61.5q-98 0 -161 -74 q-51 -60 -51 -137z" />
<glyph unicode="&#xe7;" horiz-adv-x="887" d="M411 -379q102 -11 149 -11q165 0 165 94q0 84 -127 84q-70 0 -131 -20l57 218h148l-21 -92q107 0 177 -39q88 -50 88 -150q0 -117 -124 -175q-94 -43 -226 -43q-49 0 -155 16v118zM75 463q0 184 120 322q149 172 403 172q114 0 214 -52v-279q-87 61 -170 61 q-98 0 -162 -63t-64 -161t64 -161t162 -63q82 0 170 60v-279q-102 -51 -214 -51q-254 0 -403 172q-120 139 -120 322z" />
<glyph unicode="&#xe8;" horiz-adv-x="1172" d="M276 1363l208 149l259 -316l-152 -112zM75 454q0 222 135 361t381 139q303 0 433 -220q73 -124 73 -288v-42h-690q0 -209 202 -209q103 0 158 88h317q-38 -126 -112 -195q-134 -125 -359 -125q-286 0 -430 174q-108 130 -108 317zM416 592h375q-35 154 -187 154 q-84 0 -136 -49q-41 -39 -52 -105z" />
<glyph unicode="&#xe9;" horiz-adv-x="1172" d="M439 1196l259 316l208 -149l-315 -279zM75 454q0 222 135 361t381 139q303 0 433 -220q73 -124 73 -288v-42h-690q0 -209 202 -209q103 0 158 88h317q-38 -126 -112 -195q-134 -125 -359 -125q-286 0 -430 174q-108 130 -108 317zM416 592h375q-35 154 -187 154 q-84 0 -136 -49q-41 -39 -52 -105z" />
<glyph unicode="&#xea;" horiz-adv-x="1172" d="M221 1084l317 701h107l317 -701h-119l-252 568l-252 -568h-118zM75 454q0 222 135 361t381 139q303 0 433 -220q73 -124 73 -288v-42h-690q0 -209 202 -209q103 0 158 88h317q-38 -126 -112 -195q-134 -125 -359 -125q-286 0 -430 174q-108 130 -108 317zM416 592h375 q-35 154 -187 154q-84 0 -136 -49q-41 -39 -52 -105z" />
<glyph unicode="&#xeb;" horiz-adv-x="1172" d="M181 1262q0 74 51.5 125.5t125.5 51.5t126 -51.5t52 -125.5t-52 -126t-126 -52t-125.5 52t-51.5 126zM645 1262q0 74 51.5 125.5t125.5 51.5t126 -51.5t52 -125.5t-52 -126t-126 -52t-125.5 52t-51.5 126zM75 454q0 222 135 361t381 139q303 0 433 -220q73 -124 73 -288 v-42h-690q0 -209 202 -209q103 0 158 88h317q-38 -126 -112 -195q-134 -125 -359 -125q-286 0 -430 174q-108 130 -108 317zM416 592h375q-35 154 -187 154q-84 0 -136 -49q-41 -39 -52 -105z" />
<glyph unicode="&#xec;" horiz-adv-x="552" d="M-40 1870l208 149l259 -316l-152 -112zM91 1285q0 77 53.5 130.5t130.5 53.5t131 -53.5t54 -130.5q0 -78 -53.5 -131.5t-131.5 -53.5q-77 0 -130.5 54t-53.5 131zM111 0v928h328v-928h-328z" />
<glyph unicode="&#xed;" horiz-adv-x="552" d="M123 1703l259 316l208 -149l-315 -279zM91 1285q0 77 53.5 130.5t130.5 53.5t131 -53.5t54 -130.5q0 -78 -53.5 -131.5t-131.5 -53.5q-77 0 -130.5 54t-53.5 131zM111 0v928h328v-928h-328z" />
<glyph unicode="&#xee;" horiz-adv-x="552" d="M-95 1591l317 701h107l317 -701h-119l-252 568l-252 -568h-118zM91 1285q0 77 53.5 130.5t130.5 53.5t131 -53.5t54 -130.5q0 -78 -53.5 -131.5t-131.5 -53.5q-77 0 -130.5 54t-53.5 131zM111 0v928h328v-928h-328z" />
<glyph unicode="&#xef;" horiz-adv-x="552" d="M-135 1769q0 74 51.5 125.5t125.5 51.5t126 -51.5t52 -125.5t-52 -126t-126 -52t-125.5 52t-51.5 126zM329 1769q0 74 51.5 125.5t125.5 51.5t126 -51.5t52 -125.5t-52 -126t-126 -52t-125.5 52t-51.5 126zM91 1285q0 77 53.5 130.5t130.5 53.5t131 -53.5t54 -130.5 q0 -78 -53.5 -131.5t-131.5 -53.5q-77 0 -130.5 54t-53.5 131zM111 0v928h328v-928h-328z" />
<glyph unicode="&#xf1;" horiz-adv-x="1203" d="M71 1184q123 217 305 217q74 0 240 -76q53 -18 105 -37q61 -21 104 -21q116 0 209 155l98 -64q-135 -237 -311 -237q-61 0 -134 29l-104 46q-121 70 -202 70q-69 0 -127 -51q-40 -36 -107 -131zM112 0v928h328v-117q57 66 105 93q78 44 195 44q150 0 244 -81 q107 -92 107 -276v-591h-328v470q0 123 -28 163q-41 59 -123 59q-75 0 -126 -51q-46 -46 -46 -144v-497h-328z" />
<glyph unicode="&#xf2;" horiz-adv-x="1267" d="M329 1363l208 149l259 -316l-152 -112zM75 472q0 181 128 321q155 169 441 169q263 0 420 -169q128 -138 128 -329q0 -193 -127 -331q-154 -168 -431 -168q-278 0 -432 168q-127 138 -127 339zM416 464q0 -79 52 -140q64 -76 166 -76q91 0 154 62.5t63 153.5 q0 90 -63.5 152.5t-153.5 62.5q-102 0 -166 -76q-52 -61 -52 -139z" />
<glyph unicode="&#xf3;" horiz-adv-x="1267" d="M492 1196l259 316l208 -149l-315 -279zM75 472q0 181 128 321q155 169 441 169q263 0 420 -169q128 -138 128 -329q0 -193 -127 -331q-154 -168 -431 -168q-278 0 -432 168q-127 138 -127 339zM416 464q0 -79 52 -140q64 -76 166 -76q91 0 154 62.5t63 153.5 q0 90 -63.5 152.5t-153.5 62.5q-102 0 -166 -76q-52 -61 -52 -139z" />
<glyph unicode="&#xf4;" horiz-adv-x="1267" d="M273 1084l317 701h107l317 -701h-119l-252 568l-252 -568h-118zM75 472q0 181 128 321q155 169 441 169q263 0 420 -169q128 -138 128 -329q0 -193 -127 -331q-154 -168 -431 -168q-278 0 -432 168q-127 138 -127 339zM416 464q0 -79 52 -140q64 -76 166 -76 q91 0 154 62.5t63 153.5q0 90 -63.5 152.5t-153.5 62.5q-102 0 -166 -76q-52 -61 -52 -139z" />
<glyph unicode="&#xf5;" horiz-adv-x="1267" d="M114 1184q123 217 305 217q74 0 240 -76q53 -18 105 -37q61 -21 104 -21q116 0 209 155l98 -64q-135 -237 -311 -237q-61 0 -134 29l-104 46q-121 70 -202 70q-69 0 -127 -51q-40 -36 -107 -131zM75 472q0 181 128 321q155 169 441 169q263 0 420 -169q128 -138 128 -329 q0 -193 -127 -331q-154 -168 -431 -168q-278 0 -432 168q-127 138 -127 339zM416 464q0 -79 52 -140q64 -76 166 -76q91 0 154 62.5t63 153.5q0 90 -63.5 152.5t-153.5 62.5q-102 0 -166 -76q-52 -61 -52 -139z" />
<glyph unicode="&#xf6;" horiz-adv-x="1267" d="M235 1262q0 74 51.5 125.5t125.5 51.5t126 -51.5t52 -125.5t-52 -126t-126 -52t-125.5 52t-51.5 126zM699 1262q0 74 51.5 125.5t125.5 51.5t126 -51.5t52 -125.5t-52 -126t-126 -52t-125.5 52t-51.5 126zM75 472q0 181 128 321q155 169 441 169q263 0 420 -169 q128 -138 128 -329q0 -193 -127 -331q-154 -168 -431 -168q-278 0 -432 168q-127 138 -127 339zM416 464q0 -79 52 -140q64 -76 166 -76q91 0 154 62.5t63 153.5q0 90 -63.5 152.5t-153.5 62.5q-102 0 -166 -76q-52 -61 -52 -139z" />
<glyph unicode="&#xf7;" horiz-adv-x="1249" d="M166 385v123h954v-123h-954zM526 121q0 46 32.5 78t78.5 32t78.5 -32t32.5 -78t-32.5 -77.5t-78.5 -31.5t-78.5 31.5t-32.5 77.5zM526 770q0 46 32.5 78.5t78.5 32.5t78.5 -32.5t32.5 -78.5t-32.5 -77t-78.5 -31t-78.5 31t-32.5 77z" />
<glyph unicode="&#xf9;" horiz-adv-x="1212" d="M291 1363l208 149l259 -316l-152 -112zM112 339v589h328v-526q0 -87 42 -128q45 -44 125 -44q79 0 124 44q42 41 42 128v526h328v-589q0 -259 -245 -344q-102 -35 -249 -35q-289 0 -415 142q-80 90 -80 237z" />
<glyph unicode="&#xfa;" horiz-adv-x="1212" d="M455 1196l259 316l208 -149l-315 -279zM112 339v589h328v-526q0 -87 42 -128q45 -44 125 -44q79 0 124 44q42 41 42 128v526h328v-589q0 -259 -245 -344q-102 -35 -249 -35q-289 0 -415 142q-80 90 -80 237z" />
<glyph unicode="&#xfb;" horiz-adv-x="1212" d="M236 1084l317 701h107l317 -701h-119l-252 568l-252 -568h-118zM112 339v589h328v-526q0 -87 42 -128q45 -44 125 -44q79 0 124 44q42 41 42 128v526h328v-589q0 -259 -245 -344q-102 -35 -249 -35q-289 0 -415 142q-80 90 -80 237z" />
<glyph unicode="&#xfc;" horiz-adv-x="1212" d="M197 1262q0 74 51.5 125.5t125.5 51.5t126 -51.5t52 -125.5t-52 -126t-126 -52t-125.5 52t-51.5 126zM661 1262q0 74 51.5 125.5t125.5 51.5t126 -51.5t52 -125.5t-52 -126t-126 -52t-125.5 52t-51.5 126zM112 339v589h328v-526q0 -87 42 -128q45 -44 125 -44 q79 0 124 44q42 41 42 128v526h328v-589q0 -259 -245 -344q-102 -35 -249 -35q-289 0 -415 142q-80 90 -80 237z" />
<glyph unicode="&#xfd;" horiz-adv-x="1246" d="M471 1196l259 316l208 -149l-315 -279zM0 928h381l248 -476l241 476h376l-745 -1392h-368l315 591z" />
<glyph unicode="&#xff;" horiz-adv-x="1246" d="M213 1262q0 74 51.5 125.5t125.5 51.5t126 -51.5t52 -125.5t-52 -126t-126 -52t-125.5 52t-51.5 126zM677 1262q0 74 51.5 125.5t125.5 51.5t126 -51.5t52 -125.5t-52 -126t-126 -52t-125.5 52t-51.5 126zM0 928h381l248 -476l241 476h376l-745 -1392h-368l315 591z" />
<glyph unicode="&#x152;" horiz-adv-x="2677" d="M1818 0v1365h777v-297h-422v-231h399v-297h-399v-243h422v-297h-777zM82 678q0 127 50 260.5t134 228.5q211 239 571 239t571 -239q185 -210 185 -489q0 -278 -185 -488q-211 -239 -571 -239q-359 0 -570 239q-185 210 -185 488zM451 678q0 -138 92 -247 q114 -135 294 -135t295 134q92 107 92 248q0 144 -92 249q-118 134 -295 134q-122 0 -221 -68.5t-141 -182.5q-24 -65 -24 -132z" />
<glyph unicode="&#x153;" horiz-adv-x="2439" d="M1342 454q0 222 135 361t381 139q303 0 433 -220q73 -124 73 -288v-42h-690q0 -209 202 -209q103 0 158 88h317q-38 -126 -112 -195q-134 -125 -359 -125q-286 0 -430 174q-108 130 -108 317zM1683 592h375q-35 154 -187 154q-84 0 -136 -49q-41 -39 -52 -105zM75 472 q0 181 128 321q155 169 441 169q263 0 420 -169q128 -138 128 -329q0 -193 -127 -331q-154 -168 -431 -168q-278 0 -432 168q-127 138 -127 339zM416 464q0 -79 52 -140q64 -76 166 -76q91 0 154 62.5t63 153.5q0 90 -63.5 152.5t-153.5 62.5q-102 0 -166 -76 q-52 -61 -52 -139z" />
<glyph unicode="&#x178;" horiz-adv-x="1311" d="M245 1706q0 74 51.5 125.5t125.5 51.5t126 -51.5t52 -125.5t-52 -126t-126 -52t-125.5 52t-51.5 126zM709 1706q0 74 51.5 125.5t125.5 51.5t126 -51.5t52 -125.5t-52 -126t-126 -52t-125.5 52t-51.5 126zM-25 1365h424l258 -372l248 372h430l-511 -709v-656h-355v656z " />
<glyph unicode="&#x2c6;" horiz-adv-x="788" d="M27 436l317 701h107l317 -701h-119l-252 568l-252 -568h-118z" />
<glyph unicode="&#x2dc;" horiz-adv-x="567" d="M-530 222q123 217 305 217q74 0 240 -76q53 -18 105 -37q61 -21 104 -21q116 0 209 155l98 -64q-135 -237 -311 -237q-61 0 -134 29l-104 46q-121 70 -202 70q-69 0 -127 -51q-40 -36 -107 -131z" />
<glyph unicode="&#x2000;" horiz-adv-x="1146" />
<glyph unicode="&#x2001;" horiz-adv-x="2292" />
<glyph unicode="&#x2002;" horiz-adv-x="1146" />
<glyph unicode="&#x2003;" horiz-adv-x="2292" />
<glyph unicode="&#x2004;" horiz-adv-x="764" />
<glyph unicode="&#x2005;" horiz-adv-x="573" />
<glyph unicode="&#x2006;" horiz-adv-x="382" />
<glyph unicode="&#x2007;" horiz-adv-x="382" />
<glyph unicode="&#x2008;" horiz-adv-x="286" />
<glyph unicode="&#x2009;" horiz-adv-x="458" />
<glyph unicode="&#x200a;" horiz-adv-x="127" />
<glyph unicode="&#x2010;" horiz-adv-x="625" d="M90 360v213h438v-213h-438z" />
<glyph unicode="&#x2011;" horiz-adv-x="625" d="M90 360v213h438v-213h-438z" />
<glyph unicode="&#x2012;" horiz-adv-x="625" d="M90 360v213h438v-213h-438z" />
<glyph unicode="&#x2013;" horiz-adv-x="1229" d="M130 348v270h969v-270h-969z" />
<glyph unicode="&#x2014;" horiz-adv-x="1570" d="M0 348v270h1570v-270h-1570z" />
<glyph unicode="&#x2018;" horiz-adv-x="707" d="M96 765l333 600h210l-234 -600h-309z" />
<glyph unicode="&#x2019;" horiz-adv-x="707" d="M68 765l235 600h308l-333 -600h-210z" />
<glyph unicode="&#x201a;" horiz-adv-x="707" d="M68 -254l235 601h308l-333 -601h-210z" />
<glyph unicode="&#x201c;" horiz-adv-x="1171" d="M96 765l333 600h210l-234 -600h-309zM560 765l333 600h211l-235 -600h-309z" />
<glyph unicode="&#x201d;" horiz-adv-x="1171" d="M68 765l235 600h308l-333 -600h-210zM532 765l235 600h309l-334 -600h-210z" />
<glyph unicode="&#x201e;" horiz-adv-x="1171" d="M68 -254l235 601h308l-333 -601h-210zM532 -254l235 601h309l-334 -601h-210z" />
<glyph unicode="&#x2022;" horiz-adv-x="1365" d="M401 694q0 107 69 186q85 98 217 98q102 0 182 -68q100 -85 100 -216t-99 -216q-79 -68 -183 -68q-132 0 -217 99q-69 80 -69 185z" />
<glyph unicode="&#x2026;" horiz-adv-x="1864" d="M99 174q0 78 51 138q63 74 161 74q89 0 150.5 -61.5t61.5 -150.5t-61.5 -150.5t-150.5 -61.5q-98 0 -161 75q-51 61 -51 137zM720 174q0 78 51 138q63 74 161 74q89 0 150.5 -61.5t61.5 -150.5t-61.5 -150.5t-150.5 -61.5q-98 0 -161 75q-51 61 -51 137zM1341 174 q0 79 50 138q63 74 162 74q89 0 150.5 -61.5t61.5 -150.5t-61.5 -150.5t-150.5 -61.5q-98 0 -161 75q-51 61 -51 137z" />
<glyph unicode="&#x202f;" horiz-adv-x="458" />
<glyph unicode="&#x2039;" horiz-adv-x="637" d="M57 467l311 444l181 -124l-228 -320l234 -315l-187 -131z" />
<glyph unicode="&#x203a;" horiz-adv-x="637" d="M82 152l233 315l-228 320l182 124l311 -444l-311 -446z" />
<glyph unicode="&#x205f;" horiz-adv-x="573" />
<glyph unicode="&#x2122;" horiz-adv-x="1590" d="M1 1191v174h539v-174h-169v-604h-208v604h-162zM580 587l130 778h209l149 -399l157 399h211l115 -778h-212l-53 422l-175 -422h-92l-167 422l-61 -422h-211z" />
<glyph unicode="&#xe000;" horiz-adv-x="930" d="M0 930h930v-930h-930v930z" />
<glyph unicode="&#xfb01;" horiz-adv-x="1260" d="M799 1285q0 77 53.5 130.5t130.5 53.5t131 -53.5t54 -130.5q0 -78 -53.5 -131.5t-131.5 -53.5q-77 0 -130.5 54t-53.5 131zM819 0v928h328v-928h-328zM22 658v270h117v123q0 205 104 316q129 138 310 138q72 0 145 -34v-286q-67 37 -115 37q-67 0 -98 -51 q-18 -29 -18 -143v-100h231v-270h-231v-658h-328v658h-117z" />
<glyph unicode="&#xfb02;" horiz-adv-x="1260" d="M820 0v1502h328v-1502h-328zM22 658v270h117v123q0 205 104 316q129 138 310 138q72 0 145 -34v-286q-67 37 -115 37q-67 0 -98 -51q-18 -29 -18 -143v-100h231v-270h-231v-658h-328v658h-117z" />
<glyph unicode="&#xfb03;" horiz-adv-x="1968" d="M1507 1285q0 77 53.5 130.5t130.5 53.5t131 -53.5t54 -130.5q0 -78 -53.5 -131.5t-131.5 -53.5q-77 0 -130.5 54t-53.5 131zM1527 0v928h328v-928h-328zM730 658v270h117v123q0 205 104 316q129 138 310 138q72 0 145 -34v-286q-67 37 -115 37q-67 0 -98 -51 q-18 -29 -18 -143v-100h231v-270h-231v-658h-328v658h-117zM22 658v270h117v123q0 205 104 316q129 138 310 138q72 0 145 -34v-286q-67 37 -115 37q-67 0 -98 -51q-18 -29 -18 -143v-100h231v-270h-231v-658h-328v658h-117z" />
<glyph unicode="&#xfb04;" horiz-adv-x="1968" d="M1528 0v1502h328v-1502h-328zM730 658v270h117v123q0 205 104 316q129 138 310 138q72 0 145 -34v-286q-67 37 -115 37q-67 0 -98 -51q-18 -29 -18 -143v-100h231v-270h-231v-658h-328v658h-117zM22 658v270h117v123q0 205 104 316q129 138 310 138q72 0 145 -34v-286 q-67 37 -115 37q-67 0 -98 -51q-18 -29 -18 -143v-100h231v-270h-231v-658h-328v658h-117z" />
</font>
</defs>
</svg>
